<svg xmlns="http://www.w3.org/2000/svg" viewBox="0 0 4680 3120"><defs><clipPath id="a"><path fill="none" d="M2018 1206.81c0 92-79.08 166.62-176.63 166.62-50.14 0-95.4-19.71-127.55-51.37-30.4-29.92-49.08-70.53-49.08-115.25 0-92 79.08-166.62 176.63-166.62s176.63 74.6 176.63 166.62Z"/></clipPath><clipPath id="b"><path fill="none" d="M1744.1 1175.17s-15 68.16 11.94 89.71a60 60 0 0 0 73.14 2.45 62.2 62.2 0 0 0 20.89-28.42s18.44 3.1 22.49-12.4c4.32-15.06-4.54-35-25.62-22.27 4.16-46.14-79.51-92.24-102.84-29.07Z"/></clipPath></defs><g data-name="7" fill="#000000" class="color000 svgShape"><path fill="#d2ebf8" d="M3539.05 1220.46c-260.08-85.55-390.12-393.54-797.57-735.74S1796.53 613 1796.53 613c-742.32 47.55-999.16 735.71-1004.9 952.36-3.36 126.92-38.74 412.05 86 596.13 117.23 173 606.85 196.76 840.92 111.21s229.78-5.77 229.78-5.77 1157.3 356.53 1642.77 5.77 208.03-966.7-52.05-1052.24Z" class="colord2ebf8 svgShape"/><path fill="#f79836" d="M1494.71 810.23h1371.05v1790.61H1494.71z" class="colorf79836 svgShape"/><path fill="#ffffff" d="M1567.11 883.65h1226.25v1643.77H1567.11z" class="colorfff svgShape"/><path fill="#aacfeb" d="M3556.25 2618.29c-73.35 0-132.82 12.37-132.82 27.64s59.47 27.63 132.82 27.63 132.83-12.37 132.83-27.63-59.47-27.64-132.83-27.64Z" class="coloraacfeb svgShape"/><path fill="#2586b5" d="M3619.18 1541.24s-13.06 91.21-29.37 132.68-31.81 81.08-19.72 180.59 19.62 107.81 22.39 133.6-1.58 134.55 4.94 152.51-38.07 142.34-41.33 195.78-15.23 131.76 0 165.85l8.7-4.6s-22.84-82.93 12-182.44 19.58-112.39 78.32-174.59 63.09-191.2 63.09-191.2 28.28-146.51 0-211-30.5-129-99.02-197.18ZM3435.35 2047.54c27.73-49.75-13.06-178.29 26.43-235.59s19.22-147.25 10.22-181.8.92-58.05 9.08-94.47-9.08-89.35-9.08-89.35c-1.47 45.15-42 106.88-71.41 146.51s-84.85 147.42-78.32 196.25 3.26 52.52 3.26 52.52c-20.66 65.42 0 83.85-6.52 154.8s46.77 65.42 48.95 110.56 71.79 121.63 104 176 25.4 164 25.4 164l25 25.8c16.31-135.45-44.6-219.29-77.23-282.87s-37.52-92.6-9.78-142.36Z" class="color2586b5 svgShape"/><path fill="#91d3f3" d="M3405.91 1749.41s-21.76 82.93-5.44 128.07 35.89 80.17 34.8 148.35 62 94 60.92 131.76 13 78.32 25 108.72-5.44 146.51 5.44 200 21.75 50.67 21.75 50.67-16.32-70-12-95.82 14.14-113.33 12-145.58 15.23-58.05 17.4-114.26 16.32-106.88-13.05-177.83-23.91-155.76-146.82-234.08ZM3817.22 2049.52c-39.16 59.43-65.73 103.65-88.34 138.21s-55.25 24.88-83 51.13c-23.24 22-44.71 73.21-52.86 99.19a93.91 93.91 0 0 1-11.59 24.17c-4.62 6.91-10.06 15.31-13.32 21.3-6.53 12-12.64 80.17-12.64 80.17l7.2-2.31s-11.06-94.75 80.31-129.3 153-33.78 195.44-116.71 42.42-196.26 57.1-219.75c.01 0-39.15-5.53-78.3 53.9Z" class="color91d3f3 svgShape"/><path fill="#91d3f3" d="M3336.29 2189c-9.79-34.09 1.09-136.36-60.92-193.49 0 0 8.71 63.6 0 80.63s-82.67 96.28-39.15 162.62 141.4 58.05 171.86 72.79 60.91 6.45 66.35 20.27 30.46 62.66 39.16 115.18l9.79 7.83s-7.61-117.48-50-164.47-127.3-67.29-137.09-101.36Z" class="color91d3f3 svgShape"/><path fill="#33a8df" d="m3532.45 2372.34 3.62-127.16s-7.25-99.51-20.3-180.59-109.86-315.18-109.86-315.18-21.76 82.93-5.44 128.07 35.89 80.17 34.8 148.35 62 94 60.92 131.76 13 78.32 25 108.72-5.44 146.51 5.44 200c6 29.27 11.91 41.66 16.08 46.9-24.42-42.74-10.26-140.87-10.26-140.87ZM3737.67 2241.5c-39.16 18.43-77.48 26.16-115.3 70.95S3568 2398.6 3568 2398.6s-9.55 39.85-12 60.17c-.3 3.08-.46 4.92-.46 4.92l7.2-2.31s-11.06-94.75 80.31-129.3 153-33.78 195.44-116.71 42.42-196.26 57.1-219.75c0 0-53.43 66.21-81.72 119.65s-37.04 107.8-76.2 126.23Z" class="color33a8df svgShape"/><path fill="#33a8df" d="M3457 2298.62c-25-25.79-133.8-62.65-167.32-88.45s9.6-95.82 13.95-125.17-28.29-89.52-28.29-89.52 8.71 63.6 0 80.63-82.67 96.28-39.15 162.62 141.4 58.05 171.86 72.79 60.91 6.45 66.35 20.27 30.46 62.66 39.16 115.17l4.28 3.43c-2.4-20.77-6.73-52.22-13-75.29-10.1-37.47-22.79-50.68-47.84-76.48Z" class="color33a8df svgShape"/><path fill="#4b628f" d="M3670.73 2365.76h-244.39c-8.66 0-15.05 10-13 20.49l46.15 241.18c1.43 7.5 6.83 12.8 13 12.8h152.09c6.21 0 11.6-5.3 13-12.8l46.15-241.18c2.04-10.46-4.34-20.49-13-20.49Z" class="color4b628f svgShape"/><path fill="#bae1d8" d="M3443.78 2545.56h209.51l16.57-86.61h-242.65l16.57 86.61z" class="colorbae1d8 svgShape"/><path fill="#f8ad99" d="M3035.91 2313.67v37.07l29.62 20s-20.95-49.94-29.62-57.07Z" class="colorf8ad99 svgShape"/><path fill="#435780" d="M3026.78 2333.24c-20.56 111.44-83.88 197.05-83.88 197.05l17.75 4.06s96.82-141.17 98.74-152.93-7.79-41.27-32.61-48.18Z" class="color435780 svgShape"/><path fill="#2586b5" d="M3159.64 2301.22c-27.59 27-78.59 41.67-99.2 50.49s-39.64 90.55-78.1 134.57c-32 36.58-61.35 46-61.35 46l-1.73 45 91.09-20.94s204-83.18 209.55-101.37-15.36-50-27.5-68.89-9.34-45.81-32.76-84.86Z" class="color2586b5 svgShape"/><path fill="#2586b5" d="M2982.34 2486.28c-32 36.58-61.35 46-61.35 46l-.84 21.77 20.22.56s55-24.45 101.08-101c18.74-31.13 38.56-71.86 47.3-112.72-11.45 4.39-21.53 7.94-28.31 10.84-20.61 8.81-39.64 90.53-78.1 134.55Z" class="color2586b5 svgShape"/><path fill="#ef512c" d="M3135.58 2502.23c43.41-19.93 82-39.55 84.32-47.31 5.31-17.47-13.75-47.52-26-66.59-20.11 12.6-62.9 47.48-58.32 113.9Z" class="coloref512c svgShape"/><path fill="#e1e1e1" d="M2936.14 2523.73c-51.08 20.37-55.9 42.68-55.9 42.68s45.83 5.63 63.21 3.51c6.04-3.69 7.07-33.92-7.31-46.19Z" class="colore1e1e1 svgShape"/><path fill="#e1e1e1" d="M3220.07 2439.32c-7.21 6.49-96.86 47.73-153.54 72.87-24.07 10.67-46.82 20.75-66.29 29.73-49.42 22.79-114.67 24-120 24.49-12 16.33-1.26 35.08-1.26 35.08 3.18-.06 78.54-1.81 135.49-28.06 19.21-8.86 41.83-18.89 65.76-29.5 25.66-11.38 52.83-23.43 78.14-35.1 31.58-14.56 60.26-28.53 79.46-39.86 0 .03.34-24.85-17.76-29.65Z" class="colore1e1e1 svgShape"/><path fill="#232323" d="M3218.78 2438c-6.64 6-93.12 46-153 72.52-24 10.65-46.74 20.72-66.32 29.75-20.23 9.33-56.8 21.08-116.15 24.11-1.57.08-2.66.14-3.18.18a2 2 0 0 0-1.87 2.06 1.8 1.8 0 0 0 2 1.68c.49 0 1.52-.09 3-.17 60-3.06 97.11-15 117.67-24.49 19.55-9 42.24-19.07 66.27-29.72a5801.47 5801.47 0 0 0 71.69-32.45c39.62-18.26 77.54-36.4 82.4-40.78a1.85 1.85 0 0 0 .18-2.66 2 2 0 0 0-2.69-.03Z" class="color232323 svgShape"/><path d="M2994.36 2496.12a7.22 7.22 0 0 0-9.31 2.91 6.22 6.22 0 0 0 2.52 8.82 7.2 7.2 0 0 0 9.3-2.91 6.23 6.23 0 0 0-2.51-8.82ZM3006.3 2475.44a7.19 7.19 0 0 0-9.29 2.92 6.22 6.22 0 0 0 2.51 8.82 7.2 7.2 0 0 0 9.3-2.92 6.21 6.21 0 0 0-2.52-8.82ZM3018.25 2454.76a7.2 7.2 0 0 0-9.29 2.92 6.22 6.22 0 0 0 2.51 8.82 7.21 7.21 0 0 0 9.3-2.93 6.22 6.22 0 0 0-2.52-8.81ZM3030.2 2434.08a7.2 7.2 0 0 0-9.3 2.92 6.23 6.23 0 0 0 2.52 8.82 7.22 7.22 0 0 0 9.31-2.92 6.22 6.22 0 0 0-2.53-8.82ZM3042.16 2413.41a7.19 7.19 0 0 0-9.3 2.91 6.22 6.22 0 0 0 2.51 8.82 7.22 7.22 0 0 0 9.31-2.92 6.22 6.22 0 0 0-2.52-8.81ZM3054.11 2392.72a7.21 7.21 0 0 0-9.3 2.92 6.22 6.22 0 0 0 2.51 8.82 7.22 7.22 0 0 0 9.31-2.92 6.24 6.24 0 0 0-2.52-8.82Z" fill="#000000" class="color000 svgShape"/><path fill="#e1e1e1" d="m3051.6 2394.92-37.71-18.81q-1 3.6-2.14 7.14l36.16 18.05a3.92 3.92 0 0 0 5.06-1.59 3.38 3.38 0 0 0-1.37-4.79ZM3039.64 2415.59l-33.09-16.51q-1.23 3.52-2.48 7L3036 2422a3.92 3.92 0 0 0 5.06-1.59 3.39 3.39 0 0 0-1.42-4.82ZM3027.69 2436.28l-29.53-14.74c-.92 2.31-1.85 4.58-2.79 6.83l28.64 14.28a3.9 3.9 0 0 0 5-1.58 3.37 3.37 0 0 0-1.32-4.79ZM3015.74 2457l-26.93-13.44c-1 2.26-2 4.5-3.07 6.69l26.31 13.12a3.91 3.91 0 0 0 5.06-1.58 3.37 3.37 0 0 0-1.37-4.79ZM3003.79 2477.63l-25.23-12.63c-1.12 2.24-2.24 4.42-3.34 6.56l24.89 12.42a3.92 3.92 0 0 0 5-1.59 3.38 3.38 0 0 0-1.32-4.76ZM2991.84 2498.31l-24.42-12.18q-1.85 3.32-3.62 6.41l24.36 12.15a3.9 3.9 0 0 0 5.05-1.58 3.38 3.38 0 0 0-1.37-4.8Z" class="colore1e1e1 svgShape"/><path fill="silver" d="M3114.43 2359.68c-17.2 7.92-25.22 27.45-17.92 43.6s27.15 22.83 44.34 14.9 25.22-27.45 17.92-43.61-27.15-22.82-44.34-14.89Z" class="colorsilver svgShape"/><path fill="#e1e1e1" d="M3117.13 2365.67c-13.66 6.3-20 21.83-14.23 34.67s21.58 18.14 35.24 11.84 20.05-21.82 14.25-34.66-21.59-18.15-35.26-11.85Z" class="colore1e1e1 svgShape"/><path fill="#f1643d" d="M3121 2374.11c-8.71 4-12.77 13.91-9.07 22.09s13.75 11.56 22.45 7.54 12.77-13.9 9.08-22.08-13.8-11.56-22.46-7.55Z" class="colorf1643d svgShape"/><path fill="#91d3f3" d="M3688.65 501.75h-688.24a20.12 20.12 0 0 0-20.25 20V922a20.12 20.12 0 0 0 20.25 20h87.92l-80.63 148.94L3235.59 942h453.06a20.13 20.13 0 0 0 20.26-20V521.73a20.12 20.12 0 0 0-20.26-19.98Z" class="color91d3f3 svgShape"/><path fill="#f8ad99" d="M2905.69 1182.22c-14.09-21.77-33.44-38.88-33.9-23.43s5.51 42.74 5.51 42.74l-31.75-19.53s-19.35-17.12-34.39-26.36-23.86 1.09-23.86 1.09-15.05-9.23-23.64-6.63-6.67 14.27-6.67 14.27-12.48 3.1-9.12 23.53 47.37 51.55 66.72 68.67 56 22.66 56 22.66 67.66 9.49 46.39-37.67c-.04.04 2.8-37.56-11.29-59.34Z" class="colorf8ad99 svgShape"/><path d="m2858.06 1193.37-69.77 13.63a2.34 2.34 0 0 0-1.29 4 2.38 2.38 0 0 0 2.19.68L2859 1198a2.34 2.34 0 0 0 1.87-2.75 2.37 2.37 0 0 0-2.81-1.88ZM2900.76 1261.61c-16.65-10.08-25.94-21-27.66-32.4a27.05 27.05 0 0 1 5.79-20.57 2.22 2.22 0 0 0-.2-3.3 2.39 2.39 0 0 0-3.34.17 31.36 31.36 0 0 0-7 24.3c1.11 7.52 5 14.76 11.6 21.63a89.56 89.56 0 0 0 18.29 14.16 2.39 2.39 0 0 0 3.26-.77 2.29 2.29 0 0 0-.74-3.22Z" fill="#000000" class="color000 svgShape"/><path fill="#dd4936" d="m3107.44 712.82-25.41-144.39-18.83 84.02-11.56-21.53-10.68 27.23h-35.36v7.35h39.57l7.36-18.8 13.15 24.49 15.59-69.57 25.65 145.76 16.97-81.88h35.75v-7.35h-40.86l-11.34 54.67z" class="colordd4936 svgShape"/><path fill="#dd4936" d="m3256.49 712.82-25.41-144.39-18.83 84.02-11.57-21.53-10.67 27.23h-35.37v7.35h39.58l7.36-18.8 13.14 24.49 15.6-69.57 25.65 145.76 16.97-81.88h35.75v-7.35h-40.87l-11.33 54.67z" class="colordd4936 svgShape"/><path fill="#dd4936" d="m3405.53 712.82-25.4-144.39-18.84 84.02-11.55-21.53-10.68 27.23h-35.37v7.35h39.58l7.36-18.8 13.14 24.49 15.6-69.57 25.64 145.75 16.98-81.87h35.75v-7.35h-40.86l-11.35 54.67zM3107.43 835.53l-25.41-95.86-18.73 55.48-11.6-14.35-10.35 17.54h-35.74v7.34h39.19l7.69-13.03 13.11 16.22 15.69-46.49 25.65 96.75 16.69-53.45h36.02v-7.34h-40.59l-11.62 37.19z" class="colordd4936 svgShape"/><path fill="#dd4936" d="m3256.48 835.53-25.41-95.86-18.73 55.48-11.61-14.35-10.34 17.54h-35.75v7.34h39.2l7.69-13.03 13.11 16.22 15.69-46.49 25.64 96.75 16.7-53.45h36.02v-7.34h-40.6l-11.61 37.19z" class="colordd4936 svgShape"/><path fill="#dd4936" d="m3405.53 835.54-25.42-95.87-18.73 55.48-11.59-14.35-10.35 17.54h-35.75v7.34h39.2l7.69-13.03 13.1 16.22 15.7-46.49 25.64 96.74 16.7-53.44h36.02v-7.34h-40.59l-11.62 37.2z" class="colordd4936 svgShape"/><path fill="#04a9b8" d="m3107.43 835.53-25.41-95.86-18.73 55.48-11.6-14.35-10.35 17.54h-35.74v7.34h39.19l7.69-13.03 13.11 16.22 15.69-46.49 25.65 96.75 16.69-53.45h36.02v-7.34h-40.59l-11.62 37.19z" class="color04a9b8 svgShape"/><path fill="#04a9b8" d="m3256.48 835.53-25.41-95.86-18.73 55.48-11.61-14.35-10.34 17.54h-35.75v7.34h39.2l7.69-13.03 13.11 16.22 15.69-46.49 25.64 96.75 16.7-53.45h36.02v-7.34h-40.6l-11.61 37.19z" class="color04a9b8 svgShape"/><path fill="#04a9b8" d="m3405.53 835.54-25.42-95.87-18.73 55.48-11.59-14.35-10.35 17.54h-35.75v7.34h39.2l7.69-13.03 13.1 16.22 15.7-46.49 25.64 96.74 16.7-53.44h36.02v-7.34h-40.59l-11.62 37.2z" class="color04a9b8 svgShape"/><ellipse cx="2167.36" cy="2660.77" fill="#b9d6e0" rx="1299.04" ry="99.23" class="colorb9d6e0 svgShape"/><rect width="140.78" height="253.42" x="3519.13" y="573.09" fill="#ffffff" rx="7.15" class="colorfff svgShape"/><path fill="#f79836" d="M3559.86 769.22a23.49 23.49 0 1 0 23.79 23.49 23.64 23.64 0 0 0-23.79-23.49Z" class="colorf79836 svgShape"/><path fill="#95b2dd" d="M3570 770.27a1.11 1.11 0 0 0-1.47.52l-20.3 42.44a1.08 1.08 0 0 0 .52 1.45 1.17 1.17 0 0 0 .47.1 1.1 1.1 0 0 0 1-.62l20.31-42.44a1.09 1.09 0 0 0-.53-1.45Z" class="color95b2dd svgShape"/><path fill="#f79836" d="M3619.18 769.22a23.49 23.49 0 1 0 23.8 23.49 23.65 23.65 0 0 0-23.8-23.49Z" class="colorf79836 svgShape"/><path fill="#95b2dd" d="M3629.33 770.27a1.11 1.11 0 0 0-1.47.52l-20.31 42.44a1.09 1.09 0 0 0 .53 1.45 1.13 1.13 0 0 0 1.47-.52l20.3-42.44a1.08 1.08 0 0 0-.52-1.45Z" class="color95b2dd svgShape"/><path fill="#f79836" d="M3559.86 709.91a23.49 23.49 0 1 0 23.79 23.49 23.64 23.64 0 0 0-23.79-23.49Z" class="colorf79836 svgShape"/><path fill="#95b2dd" d="M3570 707.78a1.1 1.1 0 0 0-1.47.52l-20.3 42.43a1.08 1.08 0 0 0 .52 1.45 1.19 1.19 0 0 0 .47.11 1.1 1.1 0 0 0 1-.63l20.31-42.43a1.08 1.08 0 0 0-.53-1.45Z" class="color95b2dd svgShape"/><path fill="#f79836" d="M3619.18 706.72a23.49 23.49 0 1 0 23.8 23.49 23.65 23.65 0 0 0-23.8-23.49Z" class="colorf79836 svgShape"/><path fill="#95b2dd" d="M3629.33 707.78a1.1 1.1 0 0 0-1.47.52l-20.31 42.43a1.08 1.08 0 0 0 .53 1.45 1.1 1.1 0 0 0 1.47-.52l20.3-42.43a1.08 1.08 0 0 0-.52-1.45Z" class="color95b2dd svgShape"/><ellipse cx="3559.86" cy="670.9" fill="#f79836" rx="23.8" ry="23.48" class="colorf79836 svgShape"/><path fill="#95b2dd" d="M3570 645.28a1.1 1.1 0 0 0-1.47.52l-20.3 42.44a1.08 1.08 0 0 0 .52 1.45 1.17 1.17 0 0 0 .47.1 1.1 1.1 0 0 0 1-.62l20.31-42.44a1.09 1.09 0 0 0-.53-1.45Z" class="color95b2dd svgShape"/><ellipse cx="3619.18" cy="670.9" fill="#f79836" rx="23.8" ry="23.48" class="colorf79836 svgShape"/><path fill="#95b2dd" d="M3629.33 645.28a1.1 1.1 0 0 0-1.47.52l-20.31 42.44a1.09 1.09 0 0 0 .53 1.45 1.13 1.13 0 0 0 1.47-.52l20.3-42.44a1.08 1.08 0 0 0-.52-1.45Z" class="color95b2dd svgShape"/><ellipse cx="3559.86" cy="608.4" fill="#f79836" rx="23.8" ry="23.48" class="colorf79836 svgShape"/><path fill="#95b2dd" d="M3570 582.78a1.11 1.11 0 0 0-1.47.52l-20.3 42.44a1.08 1.08 0 0 0 .52 1.45 1.17 1.17 0 0 0 .47.1 1.1 1.1 0 0 0 1-.62l20.31-42.44a1.09 1.09 0 0 0-.53-1.45Z" class="color95b2dd svgShape"/><ellipse cx="3619.18" cy="608.4" fill="#f79836" rx="23.8" ry="23.48" class="colorf79836 svgShape"/><path fill="#95b2dd" d="M3629.33 582.78a1.11 1.11 0 0 0-1.47.52l-20.31 42.44a1.09 1.09 0 0 0 .53 1.45 1.13 1.13 0 0 0 1.47-.52l20.3-42.44a1.08 1.08 0 0 0-.52-1.45Z" class="color95b2dd svgShape"/><path fill="#75b8bb" d="M1325.06 573.9H882a13 13 0 0 0-13 12.86v257.69a13 13 0 0 0 13 12.86h291.67l146.71 95.89-51.92-95.89h56.6a13 13 0 0 0 13-12.86V586.76a13 13 0 0 0-13-12.86Z" class="color75b8bb svgShape"/><path fill="#07b6bf" d="M2412 746.36h-80.93c-28.93 0-55.53-13-76-33.09a107 107 0 0 0-149.59 0c-20.51 20.14-47.11 33.09-76 33.09h-80.93c-27.29 0-49.41 21.83-49.41 48.76v82.25c0 25.12 20.63 45.48 46.08 45.48h470.19c25.45 0 46.08-20.36 46.08-45.48v-82.25c-.08-26.93-22.2-48.76-49.49-48.76Z" class="color07b6bf svgShape"/><ellipse cx="2740.32" cy="903.75" fill="#ef6164" rx="160.93" ry="158.81" class="coloref6164 svgShape"/><rect width="40.29" height="194.95" x="2720.17" y="806.27" fill="#ffffff" rx="2.29" class="colorfff svgShape"/><rect width="197.55" height="39.76" x="2641.55" y="883.86" fill="#ffffff" rx="2.29" class="colorfff svgShape"/><rect width="154.6" height="152.57" x="2538.44" y="1478.67" fill="#6ac5ef" rx="3.86" class="color6ac5ef svgShape"/><rect width="154.6" height="152.57" x="2538.44" y="1737.35" fill="#6ac5ef" rx="3.86" class="color6ac5ef svgShape"/><rect width="154.6" height="152.57" x="2538.44" y="1996.03" fill="#6ac5ef" rx="3.86" class="color6ac5ef svgShape"/><rect width="154.6" height="152.57" x="2538.44" y="2254.71" fill="#6ac5ef" rx="3.86" class="color6ac5ef svgShape"/><path fill="#ffffff" d="M2677.33 1499.65a11.07 11.07 0 0 0-15.29 2.63l-53.47 75.07-39.51-49.08a11.07 11.07 0 0 0-15.42-1.74 10.73 10.73 0 0 0-1.76 15.21l48.64 60.42a11 11 0 0 0 8.59 4.1h.33a11 11 0 0 0 8.65-4.6l61.91-86.91a10.75 10.75 0 0 0-2.67-15.1ZM2677.33 1759.33A11.08 11.08 0 0 0 2662 1762l-53.43 75-39.51-49a11.09 11.09 0 0 0-15.42-1.75 10.74 10.74 0 0 0-1.76 15.22l48.64 60.42a11 11 0 0 0 8.59 4.1h.33a11 11 0 0 0 8.65-4.6l61.91-86.92a10.73 10.73 0 0 0-2.67-15.14Z" class="colorfff svgShape"/><rect width="645.99" height="16" x="1669.85" y="1492.33" fill="#33a8df" rx="1.01" class="color33a8df svgShape"/><rect width="650.48" height="16" x="1669.85" y="1544.37" fill="#33a8df" rx="1.1" class="color33a8df svgShape"/><path fill="#33a8df" d="M2310.32 1596.4h-633.78c-3.7 0-6.69 3.59-6.69 8s3 8 6.69 8h633.78c3.69 0 6.69-3.59 6.69-8s-3.01-8-6.69-8Z" class="color33a8df svgShape"/><rect width="641.32" height="16" x="1669.85" y="2268.37" fill="#33a8df" rx="1.01" class="color33a8df svgShape"/><rect width="643.36" height="16" x="1669.85" y="2320.41" fill="#33a8df" rx="1.1" class="color33a8df svgShape"/><path fill="#33a8df" d="M2256.08 2372.44H1676c-3.38 0-6.12 3.58-6.12 8s2.74 8 6.12 8h580.11c3.38 0 6.12-3.58 6.12-8s-2.77-8-6.15-8Z" class="color33a8df svgShape"/><rect width="647.15" height="16" x="1669.85" y="1751.01" fill="#33a8df" rx="1.01" class="color33a8df svgShape"/><rect width="650.48" height="16" x="1669.85" y="1803.05" fill="#33a8df" rx="1.1" class="color33a8df svgShape"/><rect width="648.9" height="16" x="1669.85" y="1855.08" fill="#33a8df" rx="1.02" class="color33a8df svgShape"/><rect width="649.49" height="16" x="1669.85" y="2009.69" fill="#33a8df" rx="1.15" class="color33a8df svgShape"/><rect width="646.57" height="16" x="1669.85" y="2061.73" fill="#33a8df" rx="1.04" class="color33a8df svgShape"/><rect width="645.41" height="16" x="1669.85" y="2113.76" fill="#33a8df" rx="1.12" class="color33a8df svgShape"/><ellipse cx="1841.21" cy="1206.7" fill="#91d3f3" rx="178.42" ry="168.31" class="color91d3f3 svgShape"/><rect width="555.67" height="27.62" x="2094.9" y="1340.61" fill="#07b6bf" rx="2.46" class="color07b6bf svgShape"/><path fill="#ef6164" d="M3010.79 1300.23s-11.56 20.91-90.5 106.24c-50.84 55-91.28 68.75-91.28 68.75l27.93 86.5s112.74 95.08 186.67-7.43c95.39-132.18-32.82-254.06-32.82-254.06Z" class="coloref6164 svgShape"/><path fill="#bd2446" d="M2917.17 1406.13a2.38 2.38 0 0 0-1.81 2.17c-.39 9-1.78 54.35 10.83 57.92a18.5 18.5 0 0 0 5 .78 7.84 7.84 0 0 0 6.53-2.85c8.42-10.63-13.44-49.27-17.9-56.91a2.43 2.43 0 0 0-2.65-1.11Zm2.71 11c9.27 17.31 18.2 39 14.08 44.17-1.22 1.54-4.18 1.1-6.46.45-5.26-1.52-7.84-22.96-7.62-44.66Z" class="colorbd2446 svgShape"/><path fill="#f8ad99" d="M3119.03 2408.57h133.61v151.64h-133.61z" transform="rotate(-1.33 3188.61 2486.302)" class="colorf8ad99 svgShape"/><path fill="#263249" d="m3264.81 1698.78-275.1-60.26s-131.39 364-111.35 405.73 171.47 292.28 171.47 292.28 45.33 103.7 53.22 109.7c4.57 3.47 154.66 5.38 161.35-3.33 11.57-15.06 27.57-342.65 26.35-488.75-1.41-169.21-25.94-255.37-25.94-255.37Z" class="color263249 svgShape"/><path fill="#ef6164" d="M3175.13 1262.68s-75.53 5.77-99.88 8.37-58.32 13.19-78.91 50.09-15.19 113.29-17.4 133.94-6.23 168 13 180.27 218.73 33.82 242.2 23.15 90.82-254.63 71.13-311.72-130.14-84.1-130.14-84.1Z" class="coloref6164 svgShape"/><path fill="#f8ad99" d="m3180.58 1220.5-61.62 14-3.21 28.53-3.25 29.25s9 5.59 34.47 3.29c34.17-3.08 44.54-19.77 44.54-19.77l-.59-57.69Z" class="colorf8ad99 svgShape"/><path fill="#a2635d" d="M3115.75 1263.06c14.71-1.45 50.4-8 63.19-37a18.86 18.86 0 0 0 1.64-5.59l-61.62 14Z" class="colora2635d svgShape"/><path d="m2968 1535.8-21.12-.65a2.35 2.35 0 0 0-.08 4.69l21.12.64a2.34 2.34 0 1 0 .08-4.68Z" fill="#000000" class="color000 svgShape"/><path fill="#6473ad" d="m3045.36 1800.31-50.82-50.31a2.4 2.4 0 0 0-3.35 0 2.3 2.3 0 0 0 0 3.31l50.12 49.65 1.67 509.65a2.36 2.36 0 0 0 2.38 2.33 2.35 2.35 0 0 0 2.37-2.35l-1.68-510.59a2.27 2.27 0 0 0-.69-1.69ZM3254.35 1838.67c-21.47-3-37.62-11.42-48-25.15-17-22.55-12.68-52-12.63-52.33a2.34 2.34 0 0 0-2-2.67 2.24 2.24 0 0 0-2.7 2c-.21 1.28-4.72 31.66 13.48 55.81 11.15 14.79 28.36 23.89 51.48 27a2.34 2.34 0 0 0 .34-4.66Z" class="color6473ad svgShape"/><path fill="#ef6164" d="m2919.8 1407.24 4.57-148.75-83.6 17.94s-127.63 290 12 309 116.56-25.67 116.56-25.67Z" class="coloref6164 svgShape"/><path d="M3013.47 1529.85c-37.41-4.16-55.51 0-55.51 0s-49.83 4.63-31 17.54c9.83 6.74 60.48-.07 60.48-.07s46.32 2.32 71.52-2.74-8.08-10.58-45.49-14.73Z" fill="#000000" class="color000 svgShape"/><path fill="#fbb457" d="M3195 1524.14a2.38 2.38 0 0 0-2.48 1.51 2.35 2.35 0 0 0 .88 2.74c10.12 6.9 43.81 29 52.19 23.94 1-.63 2.73-2.2 2.27-5.64-2.18-16.83-47.64-22.01-52.86-22.55Zm48.13 24.19c-2.53 2.09-19.49-6-38.44-18.13 14.84 2.51 31.89 7.32 37 13.85a6.89 6.89 0 0 1 1.47 3.25 2.06 2.06 0 0 1 .01 1.03Z" class="colorfbb457 svgShape"/><path fill="#fbb457" d="M3206.9 1486.55c1.16 10.87-2 20.16-9.41 27.62-31.82 32.06-130.81 22.67-131.81 22.57l-.46 4.64c1.52.15 15.52 1.48 34.33 1.48 32.74 0 80-4 101.25-25.4 8.44-8.51 12-19.07 10.74-31.41Z" class="colorfbb457 svgShape"/><path fill="#33a8df" d="M936.76 616.71a15.49 15.49 0 1 0 15.7 15.49 15.59 15.59 0 0 0-15.7-15.49ZM936.76 685.16a15.49 15.49 0 1 0 15.7 15.49 15.59 15.59 0 0 0-15.7-15.49ZM936.76 753.61a15.49 15.49 0 1 0 15.7 15.48 15.59 15.59 0 0 0-15.7-15.48Z" class="color33a8df svgShape"/><path fill="#ffffff" d="M976.45 619.94h292.24v20.6H976.45zM976.45 686.31h292.24v20.6H976.45zM976.45 752.69h187.87v20.6H976.45z" class="colorfff svgShape"/><path fill="#f8ad99" d="m977.04 2456.83 4.98 106.37 157.01-7.61-3.86-97.91-158.13-.85zM1224.33 2534.1l119.39-7.5 28.07-87.44H1216.8l7.53 94.94z" class="colorf8ad99 svgShape"/><path fill="#182338" d="M1266.68 1583.59c-.03-.06-.02-.06 0 0ZM1266.68 1583.59l-32.56 41.62-71 123.42 14.3 281.78s5.21 72.92 1.91 100.5-1.91 125.25-1.91 125.25l16.77 217 199.08.64s63.28-420.09 41.82-484.15c-24.82-73.99-166.55-401.73-168.41-406.06Z" class="color182338 svgShape"/><path fill="#263249" d="m999.22 1584.38-38 136.54s-29.82 373.41-35.41 553.62 0 196.07 0 196.07 122 18.15 194.71 6.21c9.59-1.57 16.13-2.57 20.46-3.16L1262.93 1788l23.16-65.62-12.09-145.81ZM1141 2473.66l-.31 1.71s17.41-4.04.31-1.71Z" class="color263249 svgShape"/><path fill="#0e143e" d="M1140.15 2421.84H923.34a2.33 2.33 0 1 0 0 4.65h216.81a2.33 2.33 0 1 0 0-4.65ZM1401.94 2421.84h-196.18a2.33 2.33 0 1 0 0 4.65h196.18a2.33 2.33 0 1 0 0-4.65Z" class="color0e143e svgShape"/><path fill="#bd2446" d="M1127.43 1237.15s-77-2.55-116.77 33-13.37 385.29-13.37 385.29 103.7 8.59 177.94 0 114.41-21.52 114.41-21.52-5.4-319.2-25.28-353.48-136.93-43.29-136.93-43.29Z" class="colorbd2446 svgShape"/><path fill="#ffffff" d="M1244 1255.72c-42.4-16.09-61.67-13.36-61.67-13.36s101.13 368.63 103.73 383.75 110.83 254.23 110.83 254.23L1308.8 1491s-22.38-219.19-64.8-235.28Z" class="colorfff svgShape"/><path fill="#ffffff" d="M1404.56 1348.44c-77-18.38-150.1-95.72-181.26-98.12s44.62 249.31 44.62 249.31 91.92 84.15 228.57 29.17 83.28-164.18 83.28-164.18-98.18 2.21-175.21-16.18ZM952.27 1292l5.6 209.42s-25.72 509.59-20 516.24 41.77 18 77.64 24.67 137.48-8.87 141.9-17.74-51.82-788.59-51.82-788.59c-78.32-.23-153.32 56-153.32 56Z" class="colorfff svgShape"/><path fill="#f8ad99" d="m1180.88 1208.7-60.36-18.49-10.12-3.12-4.94 57.46s9.08 17.39 42.91 23c25.2 4.16 34.6-.75 34.6-.75l-1-29.4Z" class="colorf8ad99 svgShape"/><path fill="#c0766f" d="M1120.52 1190.21a18.59 18.59 0 0 0 1.22 5.68c10.56 29.79 45.65 39 60.19 41.48l-1-28.67Z" class="colorc0766f svgShape"/><path d="m1109.14 1163.27-1.53-.57a2.28 2.28 0 0 0 1.53.57ZM1197.2 1163l-.9-.17a2.61 2.61 0 0 0 .9.17Z" fill="#000000" class="color000 svgShape"/><path fill="#fcbd6a" d="M1182 1264.65c-35.53 15.95-74.47-21.38-74.87-21.76a2.39 2.39 0 0 0-3.33 0 2.31 2.31 0 0 0 0 3.29c1.37 1.34 28.28 27.15 59.07 27.15a51 51 0 0 0 21.06-4.46 2.3 2.3 0 0 0 1.17-3.08 2.37 2.37 0 0 0-3.1-1.14Z" class="colorfcbd6a svgShape"/><path fill="#405080" d="M1102.8 1230.05c-.51.11-12.59 2.78-21.08 16-9.08 14.16-10.54 34.47-4.33 60.36a3.53 3.53 0 0 0 3.44 2.69 3.72 3.72 0 0 0 .81-.09 3.5 3.5 0 0 0 2.63-4.2c-5.72-23.89-4.61-42.34 3.31-54.85 6.84-10.8 16.31-13 16.71-13.11a3.49 3.49 0 0 0 2.68-4.15 3.54 3.54 0 0 0-4.17-2.65Z" class="color405080 svgShape"/><path fill="#405080" d="M1091.14 1302a16.91 16.91 0 0 0-14.36 5.53c-23 24.58 5 88.69 6.26 91.41a3.57 3.57 0 0 0 4.65 1.79 3.47 3.47 0 0 0 1.83-4.59c-.28-.63-27.45-62.63-7.55-83.87a9.88 9.88 0 0 1 8.56-3.32c18.11 1.57 46.55 39.48 56 54a3.56 3.56 0 0 0 4.88 1 3.46 3.46 0 0 0 1.06-4.82c-1.47-2.28-36.06-54.98-61.33-57.13Z" class="color405080 svgShape"/><path fill="#405080" d="M1158.68 1360.31h-21.82a3.49 3.49 0 1 0 0 7h21.82a3.49 3.49 0 1 0 0-7ZM1096.32 1385.36a3.55 3.55 0 0 0-4.86 1.14l-11.4 18.34a3.45 3.45 0 0 0 1.16 4.8 3.54 3.54 0 0 0 4.85-1.15l11.41-18.34a3.46 3.46 0 0 0-1.16-4.79Z" class="color405080 svgShape"/><path fill="#ffffff" d="M1237.64 1374.5a6.48 6.48 0 1 0 6.57 6.48 6.52 6.52 0 0 0-6.57-6.48Z" class="colorfff svgShape"/><path fill="#936d82" d="m1683.15 1287.33-149.76-10c-5.45-.36-11.32 4-13.12 9.73l-72.81 231.68c-1.8 5.73 1.15 10.67 6.6 11l149.76 10c5.45.36 11.32-4 13.12-9.72l72.81-231.69c1.8-5.7-1.15-10.64-6.6-11Z" class="color936d82 svgShape"/><path fill="#a27b8f" d="m1700.64 1288.45-149.76-10c-5.44-.36-11.32 4-13.12 9.73L1465 1519.89c-1.8 5.73 1.15 10.67 6.6 11l149.76 10c5.45.36 11.32-4 13.12-9.72l72.81-231.69c1.71-5.73-1.2-10.67-6.65-11.03Z" class="colora27b8f svgShape"/><path fill="#fcbd6a" d="M1657.54 1283.05a2.35 2.35 0 0 0-3 1.52l-6.47 20.26a16.62 16.62 0 0 1-16.86 11.71l-36.43-2.33a13.45 13.45 0 0 1-10.07-5.62 14 14 0 0 1-2.08-12.09l4.28-15.07a2.33 2.33 0 0 0-1.64-2.87 2.38 2.38 0 0 0-2.9 1.61l-4.28 15.08a18.62 18.62 0 0 0 2.78 16 18.09 18.09 0 0 0 13.6 7.56l36.43 2.34h1.36a21.37 21.37 0 0 0 20.3-15l6.47-20.26a2.31 2.31 0 0 0-1.49-2.84Z" class="colorfcbd6a svgShape"/><path fill="#f8ad99" d="M1725.56 1367.47c-17.21-10.75-100.44 11.79-107 20.25-7.34 9.48 22 20.18 22 20.18s-41.59 4.26-40.37 19c.75 9 13.86 11.82 23.93 12.63a61 61 0 0 1 11.55.22 94.91 94.91 0 0 1-11.55-.22c-8.68.73-18 4.11-11.5 16.25 11 20.45 86.67 21.15 95.23 10.6s3.67-26.63 3.67-26.63a29 29 0 0 0 14.07-22.06c1.84-15.86-16.51-20.52-16.51-20.52s36.73-17.04 16.48-29.7Z" class="colorf8ad99 svgShape"/><path fill="#f8ad99" d="M1635.7 1439.78a61 61 0 0 0-11.55-.22 94.91 94.91 0 0 0 11.55.22Z" class="colorf8ad99 svgShape"/><path d="m1708.91 1394.89-60.56 5a2.32 2.32 0 0 0 .2 4.64l60.75-5a2.32 2.32 0 1 0-.39-4.63ZM1700.51 1437.46l-64.84.71a2.33 2.33 0 1 0 0 4.65l64.87-.71a2.34 2.34 0 0 0 2.32-2.36 2.29 2.29 0 0 0-2.35-2.29ZM1212.69 1185.31l-30.15 25.08c-4.58-6-18.49-22.08-31.2-16.25a8.84 8.84 0 0 0-5.2 6.3c-2 9.46 9.84 24.72 14.07 29.77l-20.65 25.1a2.31 2.31 0 0 0 .35 3.27 2.4 2.4 0 0 0 1.48.52 2.37 2.37 0 0 0 1.83-.87l21.88-26.59a2.3 2.3 0 0 0-.06-3c-4.51-5.11-15.86-20-14.29-27.25a4.12 4.12 0 0 1 2.58-3c9.51-4.34 22.63 10.59 26.84 16.73a2.4 2.4 0 0 0 1.63 1 2.49 2.49 0 0 0 1.84-.53l32.09-26.69a2.31 2.31 0 0 0 .28-3.28 2.4 2.4 0 0 0-3.32-.31Z" fill="#000000" class="color000 svgShape"/><path fill="#f8d1cc" d="m1094.25 1871.34-101.17-10.21a15.93 15.93 0 0 0-11.89 3.85 15.14 15.14 0 0 0-5.08 11.28v110.89a2.34 2.34 0 0 0 1.9 2.28l24.85 4.9c12.46 2.46 40.74 4.67 64.85 4.67 19.84 0 36.83-1.5 39.86-5.58 4.42-5.93 2.71-61.84.5-107.69a15.21 15.21 0 0 0-13.82-14.39Zm9.51 119.36c-4.35 5.27-71.64 4.67-100-.93l-23-4.53v-109a10.52 10.52 0 0 1 3.53-7.83 10.85 10.85 0 0 1 8.25-2.67l101.24 10.26a10.53 10.53 0 0 1 9.58 10c2.87 59.45 3.02 100.57.4 104.7Z" class="colorf8d1cc svgShape"/><path fill="#ffffff" d="M1124.77 1508.22a2.4 2.4 0 0 0-3.28.6c-.69 1-70 98.58-156.8 51.68a2.34 2.34 0 0 0-3.19.92 2.3 2.3 0 0 0 .93 3.15c17.63 9.54 34.56 13.38 50.38 13.38 65.41 0 112-65.67 112.57-66.5a2.31 2.31 0 0 0-.61-3.23Z" class="colorfff svgShape"/><path fill="#f8ad99" d="M1082.4 1128.81c-30.55-10.56-36.25 17.44-26.48 35.5 9.55 18.72 32.26 9.69 32.26 9.69s11.43 20.1 34.72 30.6 64.5 11.74 92.84-23.21-10-118-10-118c-47.68-74.39-141.66 7.55-123.34 65.42Z" class="colorf8ad99 svgShape"/><path fill="#100e09" d="M1179.66 1096.63c6.07-3.18 19.4-6.4 26.15-6.63-8.9-4.58-25.34 2.38-26.15 6.63Z" class="color100e09 svgShape"/><path d="M1186.5 1138.32c-.62-.56-1.48-.86-2.09-1.39a10.39 10.39 0 0 1-2.68-4.19c-2.29-5.63-3.86-11.68-5.9-17.42a.85.85 0 0 0-1.63.45c1 3.73 2 7.46 3.1 11.17.85 2.92 1.48 8 3.25 10.43 1.33 1.83 3.69 2.19 4.71 4.38 2.59 5.57-4.32 6.16-7.62 8.17a1.68 1.68 0 0 0 1.29 3c5.64-1.07 12.57-5.1 9.6-11.82a8.37 8.37 0 0 0-2.03-2.78Z" fill="#000000" class="color000 svgShape"/><path fill="#100e09" d="M1189.91 1085.74c-7.89 1.69-13.78 5.35-13.16 8.16s7.52 3.73 15.41 2 13.78-5.35 13.16-8.16-7.52-3.69-15.41-2ZM1131.23 1103.68c-7.8 2.08-13.5 6-12.74 8.8s7.7 3.35 15.49 1.28 13.5-6 12.74-8.8-7.72-3.35-15.49-1.28Z" class="color100e09 svgShape"/><path fill="#553c30" d="M1196.23 1001.38a92.71 92.71 0 0 0-11.38-1c-3.36-6.52-10.85-11.2-26.11-10.34a70 70 0 0 0-29.43 8.35c-7.63-4.7-20-6.49-39.9 3.12-12.93 6.24-21.75 16-27.84 26.25-9.39.34-19.2 3.89-26.83 14.31-11.69 16-8.7 29.9-3.8 39.08-4.58 4.58-8.48 11.38-9.24 21.46-2 27 31.2 43.06 31.2 43.06s16.72-12.08 36.06-5.68c0 0 8.86 4.59 14-5.38s-10.93-36.35-10.93-36.35 25.51 3.15 40.1-6.56 19.88-32.94 19.88-32.94 13.72 22.31 46.73 8.64 34.79-60.24-2.51-66.02Z" class="color553c30 svgShape"/><path fill="#ffffff" d="M1154.91 1163.35c-.54 0-1.18-.07-1.51.35a1.6 1.6 0 0 0-.06 1.42c.86 3.09 1.86 6.38 4.38 8.41a10.74 10.74 0 0 0 6.66 2.09 32.32 32.32 0 0 0 7-1c2-.44 4.15-1 5.5-2.49 1.77-2 1.56-5.06 2.7-7.48l2.26-2.29a18.11 18.11 0 0 1-7.49 1.51 132 132 0 0 1-19.44-.52Z" class="colorfff svgShape"/><path d="M1181.88 1161.89c-4.46.31-8.85.6-13.34.55-2.6 0-5.2-.09-7.8-.24-2-.11-4.73-.88-6.66-.45-4.44 1-1.72 6.81-.32 9.44 3 5.61 8.76 6.73 14.63 5.82 3.23-.5 7.49-1 9.94-3.48 2.21-2.21 2.41-5.5 3.43-8.3a1.81 1.81 0 0 0-.32-2 10.17 10.17 0 0 1-4.29 1.72c-.74 2.3-.85 4-2.89 5.91-2.47 2.24-5.63 2.78-9 2.94-3.66.17-6.81-1.06-8.61-4.34a10.85 10.85 0 0 1-1.37-3.47 2.61 2.61 0 0 0-.22-.93c-.25-.09-.14-.27 0 0a1.37 1.37 0 0 0 .81 0c2-.56 5.62.42 7.79.49 2.92.1 5.85 0 8.77-.11a35.82 35.82 0 0 0 4.71-.44q.15-.45.33-.93a2.43 2.43 0 0 1 4-.79 7 7 0 0 0 .76-.59.46.46 0 0 0-.35-.8Z" fill="#000000" class="color000 svgShape"/><path d="M1155.07 1165.09c-.14-.27-.25-.09 0 0ZM1177.48 1164.05q-.18.48-.33.93a10.17 10.17 0 0 0 4.29-1.72 2.43 2.43 0 0 0-3.96.79Z" fill="#000000" class="color000 svgShape"/><path fill="#f8d1cc" d="m1254.51 1380.98 26.12-32.65-36.87-54.41 22.39 57.58-28.51 29.48 36.55 14.97 28.96 273.03-19.3-280.97-29.34-7.03z" class="colorf8d1cc svgShape"/><path fill="#405080" d="M1186.73 1248.8a3.6 3.6 0 0 0-4.94.77 3.48 3.48 0 0 0 .78 4.88c36.55 26.22 51.44 119.64 51.57 120.58a3.54 3.54 0 0 0 3.5 3 3.15 3.15 0 0 0 .53 0 3.5 3.5 0 0 0 3-4c-.65-4.03-15.51-97.29-54.44-125.23Z" class="color405080 svgShape"/><path fill="#405080" d="M1237.64 1364.34a16.65 16.65 0 1 0 16.87 16.64 16.75 16.75 0 0 0-16.87-16.64Z" class="color405080 svgShape"/><path fill="#68b5d7" d="m1284.49 1395.5-41.4 6.25a.8.8 0 0 0-.68.92l5.16 33.32a.81.81 0 0 0 .93.67l41.41-6.25a.81.81 0 0 0 .68-.92l-5.16-33.32a.82.82 0 0 0-.94-.67Z" class="color68b5d7 svgShape"/><path fill="#f8ad99" d="M1231.59 1204.41s41.34-44 27.81-45.28-77.28 54.65-77.28 54.65-17.18-21.94-34.25-16.85c-7.92 2.37 15.4 33.25 15.4 33.25l-25.52 31 36.26 63.32s23.66-5.62 35.12-13.88 28.51-29.19 28.51-29.19 1.08 13.6 6.12 12.47 36.17-36.38 34.56-46.12-46.73-43.37-46.73-43.37Z" class="colorf8ad99 svgShape"/><path fill="#ffffff" d="M1033.52 1363.78 952.27 1292s-114.82 177.74 11.29 270.5c131.18 96.48 266.94-232.38 266.94-232.38l-101.72-79.86Z" class="colorfff svgShape"/><path d="m1250.22 1267.61-14.13 12.07a2.33 2.33 0 0 0 1.55 4.09 2.46 2.46 0 0 0 1.55-.56l14.12-12.07a2.32 2.32 0 0 0 .24-3.29 2.43 2.43 0 0 0-3.33-.24Z" fill="#000000" class="color000 svgShape"/><path fill="#f8d1cc" d="m1079.56 1548.34 59.52 171.44-48.26-169.85-11.26-1.59z" class="colorf8d1cc svgShape"/><path fill="#f79836" d="m3220.57 1278-104 95.53-27.46-102.66-40.45 2.85-18.79 88.4c-27.45 57-21.67 218.16-21.67 218.16l225.4 15.68-23.12-98.38 60.69-193.92Z" class="colorf79836 svgShape"/><path fill="#f8ad99" d="M2976.85 1526.18c-8.88-2.58-41.68-5-43.8 3s30.3 21.53 30.3 21.53-77.32-19.77-89.12-12.5c-14.2 8.76 8.46 15.93 8.46 15.93s-23.81 3.7-19.07 11.37 20.13 14.48 20.13 14.48-27.09-1.56-11 15.29 135.1 62.35 167.55 27.35c16-17.29-18.67-64.39-18.67-64.39s-26.79-26.83-44.78-32.06Z" class="colorf8ad99 svgShape"/><path d="m2939.15 1567.9-58.36-15.67a2 2 0 1 0-1.05 3.79l58.36 15.67a2.49 2.49 0 0 0 .53.07 2 2 0 0 0 .52-3.86ZM2930 1591.42l-48.15-13.35a2 2 0 0 0-2.45 1.36 2 2 0 0 0 1.37 2.42l48.15 13.35a2 2 0 0 0 .54.07 2 2 0 0 0 .54-3.85Z" fill="#000000" class="color000 svgShape"/><path fill="#ef6164" d="M3292.43 1324.84s-16.43 190.87-86.56 205-186.14 16.69-186.14 16.69l-37.57 94.11s55.73 66.37 129 80.66 212.44 15.7 251.71-116.5c48.38-162.88-70.44-279.96-70.44-279.96Z" class="coloref6164 svgShape"/><path fill="#263249" d="m3278.36 1702.88-30.36 14.26 14.45 79.85 2.89 373.57s-15.89 135.46 39-141.16-25.98-326.52-25.98-326.52Z" class="color263249 svgShape"/><path fill="#4b628f" d="M3127.06 2487.15c-59.12 97.09-149 155.12-149 155.12l15.14 10s141.11-98.33 147.12-108.66 7.49-41.35-13.26-56.46Z" class="color4b628f svgShape"/><path fill="#2586b5" d="M3262.81 2503.49c-35.47 15.64-88.44 11.6-110.87 12.67s-69.49 70.9-121.23 98.68c-43 23.09-73.84 21.62-73.84 21.62l-17.72 41.48 92.71 12.16s220.65-6.73 232.33-21.82 3.53-52.14-1.08-74 7.64-46.1-.3-90.79Z" class="color2586b5 svgShape"/><path fill="#e1e1e1" d="M2906.51 2654.22s40.87 21.25 57.88 25.31c7-1.34 18.78-29.3 9.7-45.75-55.09 1.22-67.58 20.44-67.58 20.44Z" class="colore1e1e1 svgShape"/><path fill="#e1e1e1" d="M3269.93 2653.75c-9.06 3.56-107.7 10.9-169.72 14.67-26.35 1.59-51.23 3.1-72.66 4.72-54.39 4.09-115.87-17.53-121-18.92-17.09 11.09-13.72 32.39-13.72 32.39 3 1 74.13 25.68 136.79 21 21.15-1.59 45.9-3.09 72.09-4.68 28.07-1.7 57.81-3.51 85.66-5.61 34.76-2.61 66.59-5.69 88.61-9.6-.04-.04 9.16-23.17-6.05-33.97Z" class="colore1e1e1 svgShape"/><path fill="#232323" d="M3269.21 2652c-8.36 3.29-103.57 10.55-169.08 14.53-26.3 1.59-51.14 3.1-72.69 4.72-22.27 1.68-60.68-.07-117.29-17.92-1.5-.47-2.54-.79-3-.93a2.07 2.07 0 0 0-2.49 1.27 1.8 1.8 0 0 0 1.3 2.29c.48.13 1.46.44 2.88.88 57.24 18 96.23 19.81 118.86 18.1 21.51-1.62 46.34-3.12 72.63-4.72 20.37-1.23 49.88-3.2 78.68-5.37 43.6-3.28 85.57-7 91.69-9.44a1.85 1.85 0 0 0 1.11-2.42 2 2 0 0 0-2.6-.99Z" class="color232323 svgShape"/><path d="M3028.69 2627.72a6.21 6.21 0 0 0-.81 9.12 7.23 7.23 0 0 0 9.75.52 6.2 6.2 0 0 0 .8-9.12 7.21 7.21 0 0 0-9.74-.52ZM3047.27 2612.54a6.2 6.2 0 0 0-.81 9.12 7.23 7.23 0 0 0 9.75.52 6.2 6.2 0 0 0 .8-9.13 7.21 7.21 0 0 0-9.74-.51ZM3065.85 2597.36a6.19 6.19 0 0 0-.8 9.12 7.22 7.22 0 0 0 9.74.51 6.2 6.2 0 0 0 .8-9.12 7.21 7.21 0 0 0-9.74-.51ZM3084.43 2582.17a6.21 6.21 0 0 0-.81 9.13 7.24 7.24 0 0 0 9.76.51 6.21 6.21 0 0 0 .79-9.13 7.22 7.22 0 0 0-9.74-.51ZM3103 2567a6.21 6.21 0 0 0-.8 9.13 7.23 7.23 0 0 0 9.75.51 6.21 6.21 0 0 0 .79-9.13 7.22 7.22 0 0 0-9.74-.51ZM3121.59 2551.81a6.2 6.2 0 0 0-.8 9.13 7.24 7.24 0 0 0 9.75.51 6.22 6.22 0 0 0 .8-9.13 7.23 7.23 0 0 0-9.75-.51Z" fill="#000000" class="color000 svgShape"/><path fill="#e1e1e1" d="M3099.66 2522.76c-1.51 2-3 4-4.57 5.94l27.38 29.48a3.92 3.92 0 0 0 5.3.28 3.37 3.37 0 0 0 .43-5ZM3084.57 2541.69c-1.61 1.91-3.22 3.81-4.83 5.67l24.15 26a3.92 3.92 0 0 0 5.3.28 3.37 3.37 0 0 0 .43-5ZM3068.68 2559.78q-2.54 2.76-5 5.42l21.68 23.34a3.93 3.93 0 0 0 5.3.28 3.37 3.37 0 0 0 .43-5ZM3052.07 2577.09c-1.77 1.76-3.52 3.5-5.26 5.19l19.91 21.45a3.93 3.93 0 0 0 5.3.28 3.37 3.37 0 0 0 .43-5ZM3034.78 2593.65q-2.78 2.55-5.48 5l18.85 20.29a3.93 3.93 0 0 0 5.29.28 3.38 3.38 0 0 0 .44-5ZM3016.81 2609.49c-1.94 1.65-3.84 3.23-5.68 4.75l18.43 19.85a3.93 3.93 0 0 0 5.31.28 3.37 3.37 0 0 0 .43-5Z" class="colore1e1e1 svgShape"/><path fill="#2d4253" d="M1527.19 2619.23c-15.67-4.14-51.34-20.35-68.6-29.86s-60.81-30.37-63.73-37.38-30.71-76.17-43.51-84.39c-5.88-3.78-32.33 8.08-59.06 14.17-31.4 7.15-63.35 9.31-65 12.69-9 17.77-27 63.16-32.57 98.68s-12 56.29 22.71 62.76 186.48 30.53 214.23 31 117.11-3.69 119.38-26.31-8.19-37.22-23.85-41.36Z" class="color2d4253 svgShape"/><path fill="#f7f8f9" d="M1477.7 2599.06a12.13 12.13 0 0 1-9.61-.27c-2.29-1-4.61-2.25-7-3.53-1.34 1.4-2.65 2.81-3.85 4.27-2.75 3.33-7.15 8.36-6.47 13 1 6.9 11.53 8.83 17.31 9.8 11.23 1.9 22.49 1.44 33.81 2.12 6.41.38 13.48 1.22 19.76-.56a18.46 18.46 0 0 0 7.38-4.07c-.62-.21-1.24-.42-1.88-.59-11.01-2.92-31.98-11.83-49.45-20.17Z" class="colorf7f8f9 svgShape"/><path fill="#e1e1e1" d="M1432 2653.89c-28.46-.93-183.56-28.82-219.15-35.91-9.83-2-16.45-4.73-20.78-8.46-3.84 24.74-3.33 37.92 25.52 43.31 34.67 6.48 185.77 31.7 213.52 32.15s117.66-1.79 119.93-24.41a48.57 48.57 0 0 0-2-20.77c-21.16 14.48-92.63 14.9-117.04 14.09Z" class="colore1e1e1 svgShape"/><path fill="#2d4253" d="M1211.31 2630.77c-9.78-2.13-16.37-5-20.68-8.84a56.77 56.77 0 0 0-.08 8.33c4.28 3.2 9.47 5 18.15 6.9 35.41 7.74 189.75 38.45 218.08 39.9h.31l2.34-6.4c-28.37-1.43-182.71-32.15-218.12-39.89Z" class="color2d4253 svgShape"/><path fill="#2d4253" d="M1417.67 2662.2c-11.61 2.43-16.89 10.82-21.63 19.93 16.09 2.12 28.66 3.49 34.92 3.59 27.75.46 117.66-1.79 119.93-24.41a51.39 51.39 0 0 0-.91-16.77c-34.41 22.46-124.62 16.06-132.31 17.66Z" class="color2d4253 svgShape"/><path fill="#474748" d="M1377.18 2566.81c-3-2.54-6.82-3.14-8.49-1.32s-.59 5.35 2.42 7.9 6.82 3.14 8.5 1.32.59-5.35-2.43-7.9ZM1399 2580.07c-3.4-2.06-7.25-2.07-8.6 0s.3 5.37 3.69 7.43 7.25 2.06 8.61 0-.33-5.38-3.7-7.43ZM1416.27 2591c-3.4-2.06-7.25-2.06-8.61 0s.3 5.37 3.7 7.43 7.25 2.06 8.6 0-.3-5.34-3.69-7.43Z" class="color474748 svgShape"/><path fill="#2d4253" d="M1351.35 2467.6c-5.88-3.78-32.33 8.08-59.06 14.17-31.4 7.15-63.35 9.31-65 12.69-2.74 5.42-6.33 13.44-10.15 22.94 9.44-6.45 17.11-12.26 19.88-17.75 1.71-3.38 33.66-5.54 65-12.69 21.84-5 43.47-13.79 53.87-14.8a21.09 21.09 0 0 0-4.54-4.56Z" class="color2d4253 svgShape"/><path fill="#f7f8f9" d="M1397.67 2547.92a2.41 2.41 0 0 0-3.16-.77l-23.46 18.57c-.84.65-.79 2.05.12 3.12l4.1 4.85a2.42 2.42 0 0 0 3.16.76l23.46-18.57c.85-.65.79-2-.11-3.11ZM1415.41 2562.49l-5.31-3.64c-1.17-.8-2.63-.77-3.26.07l-15.48 21.39c-.63.84-.2 2.17 1 3l5.3 3.64c1.17.8 2.63.78 3.26-.06l15.48-21.39c.6-.87.18-2.21-.99-3.01ZM1431.2 2572.23l-5.61-3.19c-1.24-.7-2.69-.55-3.24.34l-13.48 22.6c-.55.89 0 2.18 1.24 2.88l5.61 3.18c1.24.7 2.69.55 3.25-.34l13.48-22.59c.55-.89-.01-2.18-1.25-2.88Z" class="colorf7f8f9 svgShape"/><path fill="#474748" d="M1437 2600.88c-3.76-1.36-7.53-.63-8.43 1.64s1.43 5.2 5.19 6.56 7.53.62 8.43-1.65-1.48-5.2-5.19-6.55Z" class="color474748 svgShape"/><path fill="#f7f8f9" d="m1449.74 2580.8-5.89-2.68c-1.3-.59-2.73-.31-3.19.62l-11.26 23.68c-.47.93.21 2.17 1.51 2.76l5.89 2.68c1.31.59 2.74.31 3.2-.62l11.26-23.68c.46-.94-.21-2.17-1.52-2.76Z" class="colorf7f8f9 svgShape"/><path fill="#2d4253" d="M1340.08 2648.3c-18.24-2.57-60.8-16.29-81.65-24.86s-73-26.57-77.31-34.29-46-84-61.68-91.72c-7.19-3.55-35.13 14-64.28 24.86-34.22 12.77-69.82 19.83-71.23 24-7.39 21.9-20.84 77.15-21.71 119.15s-4.93 67 35 69.59 214.31 8.83 245.58 5.41 131.13-21 130.26-47.57-14.74-42-32.98-44.57Z" class="color2d4253 svgShape"/><path fill="#f7f8f9" d="M1281.39 2632a13.39 13.39 0 0 1-10.85 1.06 87.15 87.15 0 0 1-8.37-3.11c-1.29 1.82-2.54 3.64-3.68 5.51-2.58 4.25-6.78 10.72-5.3 16 2.19 7.86 14.29 8.6 20.94 8.91 12.91.59 25.51-1.54 38.34-2.37 7.26-.47 15.34-.51 22.13-3.47a20.42 20.42 0 0 0 7.68-5.78c-.73-.15-1.45-.31-2.2-.41-12.86-1.85-37.79-9.2-58.69-16.34Z" class="colorf7f8f9 svgShape"/><path fill="#e1e1e1" d="M1238.23 2702.1c-32.15 3-210.78-7.27-251.86-10.43-11.36-.87-19.22-3.14-24.65-6.84-.58 29.26 2 44.48 35.24 46.62 40 2.57 213.69 10.29 245 6.86s132-18.86 131.17-45.44a58.74 58.74 0 0 0-5.41-23.81c-21.56 19.82-101.87 30.49-129.49 33.04Z" class="colore1e1e1 svgShape"/><path fill="#2d4253" d="M986.63 2706.74c-11.33-1.09-19.18-3.51-24.6-7.31a68.19 68.19 0 0 0 1.16 9.67c5.31 3.11 11.41 4.46 21.46 5.43 41 3.93 219.18 17.56 251.26 15.19h.35q.83-3.87 1.67-7.76c-32.12 2.34-210.32-11.29-251.3-15.22Z" class="color2d4253 svgShape"/><path fill="#2d4253" d="M1223.43 2713.78c-12.7 4.48-17.37 15-21.32 26.21 18.41.17 32.75 0 39.81-.81 31.28-3.43 132-18.86 131.17-45.43a62 62 0 0 0-3.55-19.33c-35.31 30.91-137.72 36.41-146.11 39.36Z" class="color2d4253 svgShape"/><path fill="#474748" d="M1163.48 2608.87c-3.78-2.53-8.14-2.67-9.75-.33s.14 6.3 3.92 8.82 8.14 2.67 9.75.33-.14-6.3-3.92-8.82ZM1190 2621.14c-4.13-1.9-8.46-1.36-9.67 1.21s1.15 6.19 5.28 8.09 8.46 1.36 9.67-1.21-1.17-6.23-5.28-8.09ZM1211.09 2631.4c-4.13-1.9-8.46-1.36-9.68 1.21s1.15 6.19 5.28 8.09 8.46 1.36 9.68-1.21-1.15-6.18-5.28-8.09Z" class="color474748 svgShape"/><path fill="#2d4253" d="M1055.16 2522.29c-34.22 12.77-69.82 19.83-71.23 24-2.25 6.69-5.08 16.49-7.93 28.07 9.63-8.83 17.38-16.67 19.67-23.44 1.4-4.17 37-11.23 71.23-24 23.8-8.89 46.79-22.2 58.34-24.85a24 24 0 0 0-5.8-4.64c-7.19-3.55-35.13 13.98-64.28 24.86Z" class="color2d4253 svgShape"/><path fill="#f7f8f9" d="M1183.67 2584c-1.18-1.12-2.83-1.31-3.67-.44l-23.58 24.9c-.85.87-.58 2.48.6 3.6l5.35 5c1.18 1.12 2.82 1.31 3.67.44l23.58-24.9c.85-.87.57-2.49-.61-3.6ZM1205.81 2598.4l-6.51-3.46c-1.44-.77-3.08-.53-3.66.54l-14.18 27c-.58 1.07.11 2.55 1.55 3.32l6.51 3.46c1.44.77 3.07.53 3.66-.54l14.18-27c.58-1.07-.11-2.55-1.55-3.32ZM1225 2607.44l-6.79-2.89c-1.5-.64-3.11-.25-3.59.86l-11.75 28.14c-.48 1.11.34 2.53 1.84 3.16l6.79 2.9c1.5.63 3.11.25 3.59-.86l11.75-28.14c.52-1.11-.3-2.53-1.84-3.17Z" class="colorf7f8f9 svgShape"/><path fill="#474748" d="M1235.84 2639.87c-4.44-1-8.57.35-9.23 3.11s2.39 5.83 6.82 6.87 8.57-.35 9.23-3.11-2.39-5.83-6.82-6.87Z" class="color474748 svgShape"/><path fill="#f7f8f9" d="m1247.19 2614.75-7-2.27c-1.55-.5-3.12 0-3.5 1.18l-9.09 29.08c-.38 1.15.57 2.49 2.13 3l7 2.26c1.55.5 3.12 0 3.5-1.17l9.08-29.09c.38-1.16-.57-2.49-2.12-2.99Z" class="colorf7f8f9 svgShape"/><path fill="#553c30" d="M3403.77 1226.86a53.68 53.68 0 0 0-22.21-46.19c-11.69-8.3-26.59-11.85-37.1-21.56-22.77-21-14.48-58.53-26.59-86.89-24.14-58.48-113.77-79.08-163.55-34 0 0-10.76 64.21 5.39 92.47 4.34 7.59 10.17 14.86 11 23.54.66 6.88-1.94 13.61-3 20.45-4.68 31.11 22.72 57.75 29.15 88.56 2.27 10.87 1.87 22.16 4.32 33s8.68 21.85 19.27 25.58c18.54 6.54 37-12 56.69-11.74 20.85.28 35 20.64 53.53 30 18.16 9.15 40.44 7.22 59.23-.58 9.78-4.06 19.81-10.81 21.8-21.1 2.7-14-10.38-25.79-14.22-39.5-4.71-17 5.2-34.44 6.29-52.04Z" class="color553c30 svgShape"/><path fill="#f8ad99" d="M3217.22 1147.67c5.32-59.11-101.84-118.19-131.71-37.23 0 0-19.19 87.29 15.28 114.89s73.62 18 93.68 3.14 26.75-36.4 26.75-36.4 23.63 4 28.81-15.89c5.53-19.28-5.82-44.88-32.81-28.51Z" class="colorf8ad99 svgShape"/><path fill="#100e09" d="M3151.22 1138.15c7.65-.12 22.89 2.77 29.94 6-1.16-4.74-20.16-11.68-29.94-6ZM3091 1135.9c6.5-1.18 19.93-.83 26.4 1-1.65-3.9-18.84-7.22-26.4-1Z" class="color100e09 svgShape"/><path d="M3130.52 1187.39c-3.5-1.22-13.94-.42-7.77-8.6 1.18-1.57 2.12-1.72 2.57-3.73 1.48-6.6 1-14.31 1.36-21.06.05-1.09-1.52-1-1.65 0-.67 5.33-1.28 10.66-1.79 16-.17 1.69-.12 4.28-1.09 5.77-.3.45-1 .64-1.34 1.07a10.82 10.82 0 0 0-2.29 3.74c-2.09 7.42 5.59 10.15 11.57 10a1.64 1.64 0 0 0 .43-3.19Z" fill="#000000" class="color000 svgShape"/><path fill="#69140e" d="M3381.49 1287.15c-6.66-5-13.93-10.4-17.7-18-4.55-9.22-.72-18.79 1.66-28 3.64-14.22 3.3-29.91-9.21-39.64-6.24-4.87-13.77-7.59-20.51-11.65a75.56 75.56 0 0 1-17.69-14.87 76.38 76.38 0 0 1-18.74-43.73c-.3-3.63-6-3.66-5.7 0a82.93 82.93 0 0 0 35.47 61.09c10.87 7.46 27.45 10.94 31.67 25 4.44 14.82-5.17 28.18-4.87 42.78s12.05 24 22.75 32c2.94 2.14 5.79-2.81 2.87-4.98ZM3299.48 1267.85c-3.09-5.49-2.67-11.11-1.09-17 2.75-10.18 5.6-19.4 1.51-29.7-3.86-9.71-12.57-15.64-18.67-23.76a46.83 46.83 0 0 1-8.93-32.47c.33-3.65-5.38-3.63-5.7 0a52.16 52.16 0 0 0 7 31.26c6 10.07 17.43 16.76 21.4 28 4.25 12.06-3.19 22.19-3.61 34-.38 10.9 7.32 18.8 14.85 25.61 2.71 2.46 6.76-1.56 4-4-3.94-3.55-8.12-7.25-10.76-11.94ZM3251.18 1248.07a29 29 0 0 0-1.23-25.77c-1.76-3.22-6.69-.35-4.92 2.88a23.28 23.28 0 0 1 2.13 17.3c-1.5 5.6-5.48 8.79-8.48 13.45-6.23 9.63 1.48 19.28 8.34 25.82 2.66 2.54 6.69-1.49 4-4-4.24-4-10.42-9.68-8.71-16.27 1.29-4.93 6.77-8.67 8.87-13.41Z" class="color69140e svgShape"/><path fill="#553c30" d="M3154.32 1038.21s-66.46 12.74-68.81 72.23l39.55-28.92s55.73 62.42 92.16 66.15 6.09-80.41 6.09-80.41Z" class="color553c30 svgShape"/><path d="m3116 1201.69-1.07 2.07a43.26 43.26 0 0 0 18.42 4.12 38.35 38.35 0 0 0 19.29-5.1l-1.15-2c-17.55 9.98-35.35 1-35.49.91Z" fill="#000000" class="color000 svgShape"/><path fill="#f06561" d="M3182.73 1173c-9.71 0-17.59 7.56-17.59 16.89s7.88 16.89 17.59 16.89 17.6-7.56 17.6-16.89-7.88-16.89-17.6-16.89ZM3085.83 1171.32a15.62 15.62 0 0 0-5.5 1c1.26 8.32 3.25 19.78 5.72 28.09 8.28-.11 14.95-6.57 14.95-14.55s-6.79-14.54-15.17-14.54Z" class="colorf06561 svgShape"/><g clip-path="url(#a)" fill="#000000" class="color000 svgShape"><path fill="#b94a26" d="M1992.59 1266.07a41.9 41.9 0 0 0-17.34-36.06c-9.12-6.48-20.76-9.25-29-16.84-17.78-16.42-11.31-45.69-20.77-67.83-18.84-45.67-88.82-61.74-127.69-26.55 0 0-8.4 50.13 4.21 72.19 3.39 5.93 7.94 11.6 8.59 18.38.52 5.37-1.51 10.63-2.31 16-3.66 24.29 17.74 45.09 22.76 69.15 1.77 8.48 1.46 17.3 3.37 25.76s6.78 17.06 15 20c14.48 5.1 28.9-9.38 44.26-9.17 16.29.22 27.3 16.12 41.8 23.43 14.17 7.14 31.57 5.63 46.24-.46 7.64-3.17 15.47-8.44 17-16.47 2.11-10.91-8.1-20.14-11.1-30.84-3.61-13.33 4.13-26.95 4.98-40.69Z" class="colorb94a26 svgShape"/><path fill="#f9a31c" d="M1845.64 1312.31c-55.7-15.81-135.34 8.39-135.34 8.39s4.52 77.19 9 98 15 20.78 31.59 25.23 182 0 194 1.49-1.5-96.49-1.5-96.49a641.23 641.23 0 0 0-97.75-36.62Z" class="colorf9a31c svgShape"/><path fill="#f8ad99" d="M1831.53 1261.59h-52.62v15.05l-4.08 37.62s54.82 5.39 70.81-2c-7.29-5.57-14.11-50.67-14.11-50.67Z" class="colorf8ad99 svgShape"/><path fill="#f8ad99" d="M1846.94 1204.24c4.16-46.14-79.51-92.27-102.84-29.07 0 0-15 68.16 11.94 89.71a60 60 0 0 0 73.14 2.45 62.2 62.2 0 0 0 20.89-28.42s18.44 3.1 22.49-12.4c4.32-15.06-4.56-35.05-25.62-22.27Z" class="colorf8ad99 svgShape"/><path fill="#100e09" d="M1758.71 1204.82a3.64 3.64 0 1 0 3.69 3.64 3.66 3.66 0 0 0-3.69-3.64Z" class="color100e09 svgShape"/><path fill="#ffffff" d="M1802.9 1205c-7.35-.36-13.46 2.43-13.65 6.23s5.61 7.17 13 7.53 13.47-2.43 13.66-6.23-5.66-7.22-13.01-7.53Z" class="colorfff svgShape"/><path fill="#100e09" d="M1800.78 1205.65a5.8 5.8 0 1 0 5.88 5.8 5.84 5.84 0 0 0-5.88-5.8Z" class="color100e09 svgShape"/><path fill="#ffffff" d="M1759.89 1203.06c-6.7-.35-12.28 2.44-12.45 6.24s5.12 7.17 11.82 7.53 12.28-2.43 12.45-6.24-5.12-7.17-11.82-7.53Z" class="colorfff svgShape"/><ellipse cx="1757.04" cy="1209.56" fill="#100e09" rx="5.36" ry="5.8" class="color100e09 svgShape"/><path fill="#100e09" d="M1795.41 1196.81c6-.09 17.87 2.16 23.37 4.7-.9-3.71-15.72-9.13-23.37-4.7ZM1748.41 1195.05c5.08-.91 15.56-.64 20.61.76-1.3-3.05-14.72-5.61-20.61-.76Z" class="color100e09 svgShape"/><path d="M1779.25 1235.25a27.39 27.39 0 0 1-3.52-.73q-2.67.29-1.94-3.08-1.76-2.16-.21-3.26c.71-1.39 1.21-1.24 1.63-2.68 1.41-4.81.81-11.32 1-16.31 0-.85-1.19-.8-1.29 0-.59 4.7-.6 9.75-1.58 14.37-.62 3-3.13 4.09-3.67 7-1.06 5.67 4.86 7 9.2 7.22a1.28 1.28 0 0 0 .38-2.53Z" fill="#000000" class="color000 svgShape"/><path fill="#833a1c" d="M1975.2 1313.15c-5.16-3.84-10.83-8.08-13.76-14-3.87-7.77-.19-15.76 1.62-23.54 2.49-10.75 1.64-22.22-7.62-29.44-4.63-3.61-10.19-5.68-15.23-8.62a59.09 59.09 0 0 1-14.37-11.84 59.73 59.73 0 0 1-14.81-34.35c-.25-2.84-4.7-2.86-4.45 0a64.44 64.44 0 0 0 25.22 45.9c5.17 3.92 11 6.43 16.57 9.6 7.28 4.13 11.57 10 11.53 18.59 0 7.65-3.27 14.56-4.35 22-2 13.56 7.44 22.08 17.4 29.5 2.3 1.76 4.52-2.11 2.25-3.8ZM1910.62 1297.05c-2.28-4.82-1-9.69.36-14.56 2.15-7.48 3.42-14.44.09-21.86-3.22-7.17-9.8-11.67-14.36-17.85a36.64 36.64 0 0 1-6.76-25.06c.24-2.85-4.22-2.84-4.46 0a41.19 41.19 0 0 0 4.75 23.17c4.39 8.06 12.92 13.16 16.7 21.49 4.65 10.23-2.14 18.66-2.11 28.82 0 8.24 5.87 14.17 11.6 19.36 2.11 1.92 5.27-1.21 3.15-3.14-3.35-3.04-7-6.22-8.96-10.37ZM1873.78 1281.86a22.76 22.76 0 0 0-1.28-19.35c-1.35-2.52-5.2-.28-3.85 2.25a18.15 18.15 0 0 1 1.12 15.1c-1.53 4.06-5.15 6.55-6.92 10.41-3.32 7.26 2.45 14 7.36 18.66 2.07 2 5.22-1.16 3.15-3.14-3.77-3.6-9.23-8.78-6-14.49 1.91-3.43 4.89-5.65 6.42-9.44Z" class="color833a1c svgShape"/><path fill="#b94a26" d="M1797.83 1118.79s-51.89 9.94-53.73 56.38l30.9-22.57s43.52 48.73 72 51.64 4.75-62.77 4.75-62.77Z" class="colorb94a26 svgShape"/><path d="m1767.88 1246.42-.88 1.58a33.71 33.71 0 0 0 14.39 3.23 30.09 30.09 0 0 0 15.06-4l-.9-1.59c-13.63 7.87-27.55.85-27.67.78Z" fill="#000000" class="color000 svgShape"/><path fill="#f06561" d="M1820.39 1229.41a10 10 0 1 0 10.43 10 10.24 10.24 0 0 0-10.43-10ZM1744.81 1229a10.71 10.71 0 0 0-3.78.71 157.56 157.56 0 0 0 3.93 19.32 10 10 0 1 0-.15-20Z" class="colorf06561 svgShape"/><path fill="#b94a26" d="m1778.91 1276.64-2 19.87s48.12-16.19 54.68-30.94c-.02 0-27.32 19.62-52.68 11.07Z" class="colorb94a26 svgShape"/></g><path fill="#6ac5ef" d="M2097.24 1125.03h241.06v169.92h-241.06z" class="color6ac5ef svgShape"/><path fill="#07b6bf" d="M2388.87 1178.13h258.28v36.11h-258.28zM2389.95 1248.22h260.43v40.36h-260.43z" class="color07b6bf svgShape"/><path fill="#100e09" d="M1196.26 1107.63c-3.54.79-5.41 5.82-4.18 11.25s5.1 9.2 8.64 8.42 5.42-5.82 4.19-11.25-5.11-9.2-8.65-8.42ZM1147.57 1120.41c-3.71.82-5.73 5.85-4.51 11.23s5.22 9.08 8.93 8.26 5.73-5.85 4.51-11.23-5.22-9.08-8.93-8.26ZM3159.42 1149.55c-3.57-.62-7.26 3.32-8.24 8.8s1.14 10.43 4.71 11 7.27-3.32 8.24-8.8-1.13-10.39-4.71-11ZM3109 1145.43c-3.48-.6-7.06 3.23-8 8.56s1.1 10.13 4.58 10.73 7.06-3.23 8-8.56-1.11-10.16-4.58-10.73Z" class="color100e09 svgShape"/><ellipse cx="1126.65" cy="1161.03" fill="#ef6164" rx="18.66" ry="17.46" class="coloref6164 svgShape"/><path fill="#ef6164" d="M1221.9 1123.25c-9.84 2.92-15.53 12.75-12.73 22a17.6 17.6 0 0 0 15.33 12.09c3.13-10 .68-25.29-.19-34.31-.31.03-2.09.12-2.41.22ZM1065.71 1148l.51 1c.39-.19 9.65-4.63 14.54 2.83.14.25 3.32 6.35-2.08 12.56l.88.76a12.63 12.63 0 0 0 2.2-13.92c-5.48-8.31-15.94-3.23-16.05-3.23Z" class="coloref6164 svgShape"/></g></svg>